PathFileType	4	(X/Y/Z)	Walk10.trc
DataRate	CameraRate	NumFrames	NumMarkers	Units	OrigDataRate	OrigDataStartFrame	OrigNumFrames
200.000000	200.000000	5	61	mm	200.000000	216	495
Frame#	Times		LFHD		RFHD		CLAV		LASI		RASI		RACR1		RUA1		RFA1		RWRR		RCAR		LACR1		LUA1		LWRU		RTH3		LTH1		LTH3		LTH2		LTH4		LTB1		LTB2		LTB4		LLFC		RTB1		LCAR		LTB3		LFA1		STRN		RTB4		RWRU		RTB3		RTH2		LBHD		RMT5		RMFC		RLFC		RToe		RMT1		RTH4		RMMAL		RTB2		RTH1		LElbow		RElbow		LWRR		LMFC		T10		LPSI		RLMAL		RBHD		RBack		RCAL		RPSI		LToe		RElbowM		C7		LMMAL		LElbowM		LLMAL		LCAL		LMT5		LMT1
			X1	Y1	Z1	X2	Y2	Z2	X3	Y3	Z3	X4	Y4	Z4	X5	Y5	Z5	X6	Y6	Z6	X7	Y7	Z7	X8	Y8	Z8	X9	Y9	Z9	X10	Y10	Z10	X11	Y11	Z11	X12	Y12	Z12	X13	Y13	Z13	X14	Y14	Z14	X15	Y15	Z15	X16	Y16	Z16	X17	Y17	Z17	X18	Y18	Z18	X19	Y19	Z19	X20	Y20	Z20	X21	Y21	Z21	X22	Y22	Z22	X23	Y23	Z23	X24	Y24	Z24	X25	Y25	Z25	X26	Y26	Z26	X27	Y27	Z27	X28	Y28	Z28	X29	Y29	Z29	X30	Y30	Z30	X31	Y31	Z31	X32	Y32	Z32	X33	Y33	Z33	X34	Y34	Z34	X35	Y35	Z35	X36	Y36	Z36	X37	Y37	Z37	X38	Y38	Z38	X39	Y39	Z39	X40	Y40	Z40	X41	Y41	Z41	X42	Y42	Z42	X43	Y43	Z43	X44	Y44	Z44	X45	Y45	Z45	X46	Y46	Z46	X47	Y47	Z47	X48	Y48	Z48	X49	Y49	Z49	X50	Y50	Z50	X51	Y51	Z51	X52	Y52	Z52	X53	Y53	Z53	X54	Y54	Z54	X55	Y55	Z55	X56	Y56	Z56	X57	Y57	Z57	X58	Y58	Z58	X59	Y59	Z59	X60	Y60	Z60	X61	Y61	Z61

216	1.08	-505.83	1576.6	-17.544	-507.69	1580	82.58	-529.5	1293.1	32.863	-548.53	887.01	-74.405	-560.17	901.31	175.95	-590.84	1327.1	202.74	-579.98	1157.4	253.28	-474.19	894.82	289.86	-377.54	825.43	238.46	-351.34	758.25	280.81	-610.36	1341.9	-118.32	-679.01	1179.8	-170.26	-786.94	786.41	-206.2	-709.49	583.01	205.26	-561.99	723.95	-147	-508.67	563.66	-112.47	-485.97	666.95	-105.88	-535.78	642.86	-131.47	-390.46	363.15	-21.564	-385.88	271.16	-74.733	-370.81	279.35	-15.966	-460.19	438.64	-84.968	-798.24	332.63	146.48	-850.47	737.37	-218.09	-345.23	198.83	-9.2525	-793.02	913.2	-201.27	-509.08	1157.1	37.746	-846.08	260.23	135.22	-419.75	789.94	278.68	-894.07	190.21	122.34	-629.5	650.05	199.21	-639.88	1496	-40.546	-931.87	26.28	132.29	-793.9	448.88	50.679	-766.43	439.47	177.94	-846.76	21.489	79.938	-896.98	29.701	47.764	-681.98	660.49	223.4	-972.63	136.46	50.634	-888.95	283.72	173.01	-651.61	739.78	245.09	-751.96	1039.5	-173.18	-571.38	989.82	286.95	-846.66	807.81	-178.11	-480.85	421.2	46.442	-714.63	1187	43.455	-724.56	943.12	-18.507	-998.89	124.44	127.83	-641.97	1506.6	102.79	-713.47	1273.1	114.5	-1051.5	128.32	83.905	-727.62	943.01	81.29	-163.39	110.35	-11.422	-608.93	981.52	218.02	-638.17	1396.7	37.069	-348.48	98.183	30.561	-749.33	1022.2	-101.34	-355.71	73.582	-47.94	-395.22	27.783	-3.277	-238.97	66.841	-54.691	-213.67	94.291	18.094
217	1.085	-497.95	1575.8	-17.674	-499.87	1579	82.446	-521.29	1292.2	32.442	-539.88	886.21	-74.364	-551.61	900.16	175.89	-583.09	1326.2	202.25	-572.52	1156.5	252.87	-466.9	894.02	289.68	-370.08	824.77	238.39	-343.91	757.55	280.68	-602	1340.9	-118.89	-670.27	1178.7	-170.98	-778.72	785.43	-207.14	-700.7	581.7	205.5	-553.26	723.48	-146.86	-500.07	563.27	-111.79	-477.24	666.54	-105.71	-527.13	642.42	-131.04	-383.06	361.71	-20.691	-379.3	269.65	-73.635	-364.3	277.75	-14.879	-451.92	437.97	-84.471	-791.22	331.46	147.26	-842.45	736.53	-218.97	-339.65	197.02	-7.964	-784.47	912.27	-202.18	-500.66	1156.3	37.407	-840.31	259.95	136.13	-412.31	789.18	278.52	-889.56	190.77	123.34	-620.79	648.83	199.31	-631.95	1495.2	-40.886	-931.27	26.643	132.57	-785.22	447.66	51.448	-757.68	438.1	178.48	-847.15	21.424	79.77	-896.93	29.804	47.897	-673.3	659.28	223.4	-969.23	138.41	51.895	-882.82	284.31	173.81	-643.05	738.67	244.84	-743.22	1038.4	-174.02	-564.19	988.93	286.62	-838.4	807.01	-179.1	-472.72	420.98	46.899	-706.29	1186	42.884	-715.87	942.51	-18.837	-995.55	126.92	129.02	-634.1	1505.6	102.45	-705.42	1272	113.72	-1047.9	132.24	85.302	-718.96	942.1	81.007	-159.02	105.53	-9.6968	-601.66	980.66	217.66	-630.16	1395.8	36.396	-344.15	96.444	31.818	-740.81	1021.1	-102.14	-351.48	72.14	-46.739	-391.91	27.455	-2.3243	-235.09	63.344	-53.237	-209.45	90.043	19.662
218	1.09	-490.05	1575.1	-17.804	-492.06	1578.1	82.308	-513.06	1291.4	32.003	-531.31	885.51	-74.372	-542.99	898.99	175.76	-575.32	1325.3	201.74	-565.11	1155.7	252.44	-459.71	893.2	289.52	-362.76	824	238.4	-336.68	756.75	280.65	-593.61	1340	-119.48	-661.43	1177.5	-171.74	-770.22	784.41	-208.12	-691.6	580.28	205.71	-544.62	723.08	-146.77	-491.47	563.01	-111.11	-468.52	666.24	-105.65	-518.53	642.07	-130.65	-375.71	360.35	-19.767	-372.83	268.23	-72.51	-357.96	276.2	-13.75	-443.59	437.45	-83.985	-783.83	330.22	148.08	-834.11	735.65	-219.96	-334.37	195.24	-6.6402	-775.69	911.29	-203.16	-492.23	1155.5	37.041	-834.19	259.63	137.09	-405.04	788.36	278.43	-884.74	191.36	124.38	-611.85	647.57	199.36	-624	1494.5	-41.253	-930.6	27.108	132.88	-776.13	446.27	52.253	-748.51	436.6	179.03	-847.55	21.336	79.61	-896.83	29.985	48.057	-664.37	657.98	223.37	-965.5	140.44	53.208	-876.32	284.89	174.64	-634.33	737.49	244.53	-734.34	1037.3	-174.93	-557.04	988.08	286.27	-829.89	806.14	-180.19	-464.55	420.93	47.348	-697.93	1185	42.301	-707.21	941.97	-19.07	-991.9	129.5	130.25	-626.23	1504.6	102.09	-697.34	1271	112.9	-1043.9	136.36	86.751	-710.3	941.25	80.829	-155.09	100.31	-7.9007	-594.39	979.82	217.27	-622.13	1394.9	35.698	-340.25	94.728	33.051	-732.17	1019.9	-103	-347.69	70.776	-45.577	-389.17	27.321	-1.4515	-231.72	59.683	-51.791	-205.7	85.486	21.265
219	1.095	-482.16	1574.5	-17.934	-484.25	1577.3	82.166	-504.8	1290.7	31.549	-522.81	884.92	-74.429	-534.33	897.82	175.55	-567.52	1324.5	201.22	-557.73	1154.9	252	-452.63	892.35	289.39	-355.59	823.13	238.48	-329.65	755.84	280.74	-585.19	1339	-120.09	-652.48	1176.4	-172.53	-761.42	783.34	-209.14	-682.19	578.74	205.89	-536.07	722.76	-146.74	-482.88	562.85	-110.45	-459.85	666.05	-105.7	-509.98	641.82	-130.29	-368.43	359.09	-18.798	-366.43	266.93	-71.38	-351.78	274.74	-12.593	-435.21	437.09	-83.514	-776.07	328.9	148.93	-825.45	734.72	-221.07	-329.34	193.52	-5.3046	-766.68	910.26	-204.2	-483.77	1154.8	36.65	-827.73	259.27	138.09	-397.95	787.49	278.43	-879.58	191.96	125.46	-602.67	646.27	199.37	-616.03	1493.9	-41.647	-929.83	27.701	133.2	-766.6	444.7	53.082	-738.91	434.96	179.59	-847.96	21.22	79.465	-896.65	30.266	48.249	-655.22	656.58	223.3	-961.43	142.56	54.565	-869.44	285.48	175.48	-625.44	736.24	244.17	-725.31	1036.1	-175.9	-549.93	987.27	285.9	-821.13	805.21	-181.38	-456.36	421.06	47.783	-689.55	1184.1	41.713	-698.61	941.53	-19.203	-987.9	132.2	131.52	-618.36	1503.6	101.71	-689.24	1270.1	112.05	-1039.5	140.68	88.248	-701.65	940.44	80.76	-151.55	94.813	-6.0544	-587.14	979.02	216.85	-614.06	1394	34.979	-336.74	93.084	34.23	-723.41	1018.8	-103.91	-344.25	69.529	-44.48	-386.88	27.388	-0.68201	-228.78	55.946	-50.383	-202.37	80.717	22.882
220	1.1	-474.26	1573.9	-18.065	-476.45	1576.5	82.021	-496.52	1290	31.085	-514.42	884.45	-74.536	-525.66	896.64	175.26	-559.69	1323.8	200.7	-550.38	1154.1	251.54	-445.66	891.48	289.3	-348.57	822.15	238.64	-322.84	754.83	280.94	-576.74	1338.2	-120.72	-643.43	1175.2	-173.35	-752.32	782.25	-210.19	-672.47	577.08	206.04	-527.64	722.53	-146.78	-474.32	562.82	-109.81	-451.23	666	-105.87	-501.51	641.66	-129.99	-361.21	357.96	-17.797	-360.08	265.79	-70.269	-345.74	273.4	-11.43	-426.79	436.9	-83.067	-767.91	327.51	149.81	-816.47	733.75	-222.28	-324.53	191.91	-3.9832	-757.46	909.19	-205.29	-475.3	1154.2	36.239	-820.89	258.87	139.11	-391.03	786.55	278.49	-874.05	192.59	126.57	-593.25	644.93	199.32	-608.05	1493.3	-42.066	-928.95	28.452	133.55	-756.6	442.93	53.923	-728.88	433.2	180.15	-848.36	21.073	79.345	-896.35	30.669	48.484	-645.83	655.1	223.18	-956.98	144.78	55.958	-862.14	286.06	176.32	-616.39	734.93	243.75	-716.15	1035	-176.92	-542.86	986.49	285.51	-812.1	804.23	-182.65	-448.2	421.37	48.194	-681.16	1183.3	41.124	-690.09	941.18	-19.23	-983.53	135.01	132.81	-610.48	1502.7	101.3	-681.12	1269.2	111.18	-1034.6	145.22	89.791	-693.04	939.69	80.803	-148.36	89.151	-4.1797	-579.9	978.27	216.4	-605.95	1393.3	34.245	-333.55	91.552	35.329	-714.55	1017.6	-104.87	-341.11	68.426	-43.473	-384.98	27.647	-0.033769	-226.2	52.221	-49.04	-199.41	75.842	24.491
